<?xml version="1.0" standalone="no"?>
<!DOCTYPE svg PUBLIC "-//W3C//DTD SVG 20010904//EN"
 "http://www.w3.org/TR/2001/REC-SVG-20010904/DTD/svg10.dtd">
<svg version="1.0" xmlns="http://www.w3.org/2000/svg"
 width="500.000000pt" height="500.000000pt" viewBox="0 0 500.000000 500.000000"
 preserveAspectRatio="xMidYMid meet">

<g transform="translate(0.000000,500.000000) scale(0.100000,-0.100000)"
fill="#000000" stroke="none">
<path d="M2250 4924 c-40 -5 -181 -30 -255 -45 -87 -18 -216 -59 -340 -106
-412 -158 -750 -401 -1041 -749 -192 -230 -375 -579 -456 -869 -39 -138 -46
-170 -69 -310 -19 -118 -21 -156 -16 -420 6 -302 14 -373 66 -585 104 -413
329 -811 637 -1125 220 -223 518 -427 794 -540 84 -34 302 -109 360 -124 186
-45 183 -45 583 -48 378 -3 390 -3 505 21 117 24 249 59 287 75 11 5 76 30
145 56 334 128 601 303 856 560 275 277 461 579 584 945 99 295 105 342 105
780 0 419 -3 445 -75 697 -166 575 -513 1051 -1008 1383 -128 85 -337 195
-467 244 -38 15 -79 31 -90 36 -66 29 -238 74 -385 102 -85 15 -161 20 -395
23 -159 2 -306 1 -325 -1z m545 -85 c66 -6 156 -19 200 -29 44 -10 97 -21 118
-24 42 -8 270 -80 302 -96 11 -5 58 -25 104 -44 162 -68 398 -214 541 -336
280 -239 484 -499 629 -802 147 -306 230 -623 234 -891 l2 -119 -269 2 c-148
0 -273 3 -276 5 -4 3 -10 37 -14 77 -9 93 -33 241 -47 293 -55 196 -130 385
-190 475 -9 14 -38 58 -63 97 -55 84 -86 123 -205 252 -122 133 -270 242 -482
353 -424 225 -1007 247 -1465 57 -645 -268 -1072 -859 -1109 -1537 -4 -67 -12
-125 -17 -128 -6 -4 -9 15 -7 48 1 30 0 59 -4 65 -4 6 -116 12 -312 15 -187 3
-310 9 -316 15 -14 14 13 234 46 387 21 98 87 313 114 371 36 76 61 135 61
139 0 3 26 54 59 113 168 308 377 550 681 786 130 101 335 217 517 291 239 98
466 151 728 171 173 13 228 12 440 -6z m-45 -629 c441 -46 821 -231 1118 -545
81 -85 212 -252 212 -269 0 -3 15 -29 33 -58 52 -84 114 -219 146 -320 27 -85
36 -121 71 -288 18 -84 25 -437 11 -512 -28 -146 -34 -176 -53 -243 -32 -110
-88 -252 -128 -324 -82 -146 -95 -168 -134 -221 -226 -309 -536 -536 -891
-655 -87 -29 -162 -47 -300 -71 -141 -25 -472 -14 -623 20 -287 65 -533 183
-747 360 -93 76 -222 213 -286 301 -32 44 -62 85 -67 90 -52 64 -155 271 -196
397 -79 240 -101 390 -93 656 5 205 26 324 88 499 60 171 177 386 271 498 177
210 245 274 408 384 348 234 763 342 1160 301z m-2072 -1685 c15 -5 16 -61 2
-70 -20 -13 -344 -5 -352 8 -11 17 -10 51 1 63 10 9 322 8 349 -1z m3882 -90
c7 -41 44 -43 48 -2 3 26 6 28 40 25 32 -3 38 -7 42 -33 5 -30 6 -30 77 -33
69 -3 73 -4 79 -29 14 -55 3 -58 -182 -54 -93 2 -172 5 -176 8 -10 5 -11 115
-2 138 5 11 16 15 38 13 26 -2 32 -8 36 -33z m-3860 -216 c14 -26 5 -69 -15
-69 -7 0 -17 -5 -21 -12 -4 -7 -3 -8 5 -4 6 4 20 4 31 1 30 -10 28 -73 -2 -79
-87 -16 -293 -46 -319 -46 -14 0 -30 47 -22 66 3 9 15 20 27 24 21 9 21 9 1 9
-29 1 -45 20 -45 52 0 32 2 32 155 54 60 8 111 17 113 20 3 3 22 5 43 5 29 0
41 -5 49 -21z m4105 -178 c3 -10 1 -30 -5 -45 -5 -15 -10 -38 -10 -50 0 -47
-16 -48 -193 -9 -164 35 -167 36 -167 62 0 56 8 58 137 33 65 -13 125 -26 134
-28 12 -3 20 5 27 26 9 24 17 30 41 30 20 0 32 -6 36 -19z m-4015 -221 c0 -13
-18 -27 -52 -44 -55 -27 -48 -29 40 -10 25 5 30 2 42 -26 7 -18 9 -35 4 -39
-5 -5 -58 -21 -119 -35 -60 -15 -126 -31 -146 -36 -64 -17 -79 -13 -95 26 -8
20 -14 43 -12 51 2 8 71 50 153 93 149 79 150 79 168 58 9 -11 17 -28 17 -38z
m3623 -55 c14 -10 17 -21 12 -44 -5 -24 -2 -32 14 -41 18 -9 23 -7 33 15 7 15
19 25 32 25 36 0 49 -15 44 -50 -4 -26 -1 -33 19 -41 33 -12 32 -12 43 16 15
39 80 31 80 -10 0 -26 -36 -111 -51 -121 -9 -5 -108 28 -134 46 -5 4 -47 21
-92 39 -45 18 -87 39 -93 46 -7 9 -4 26 11 61 34 78 46 87 82 59z m-3455 -301
c40 -60 40 -78 2 -94 -27 -11 -32 -10 -48 10 -29 36 -54 21 -46 -28 5 -34 3
-39 -20 -50 -23 -10 -29 -9 -46 8 -39 39 -80 14 -58 -35 11 -25 10 -29 -11
-46 -13 -11 -27 -19 -32 -19 -13 0 -79 102 -79 123 0 10 8 20 18 24 9 3 40 21
67 39 102 66 200 122 210 120 6 -1 25 -25 43 -52z m3312 -39 c33 -17 36 -31
15 -59 -22 -30 -18 -36 16 -24 67 23 154 -12 179 -72 11 -27 11 -37 -3 -65 -9
-19 -30 -41 -47 -50 -28 -15 -34 -14 -75 4 -48 21 -56 41 -31 77 14 19 12 19
-52 16 -60 -4 -70 -1 -94 21 -38 35 -44 69 -21 109 17 29 54 57 76 58 4 0 21
-7 37 -15z m-3107 -235 c36 -29 48 -69 31 -108 -18 -43 -39 -50 -70 -22 -13
13 -24 22 -25 19 0 -2 -2 -13 -3 -24 -9 -71 -19 -96 -51 -124 -65 -56 -120
-50 -157 19 -19 37 -12 69 24 108 27 28 53 28 72 1 14 -20 15 -19 21 27 10 63
19 81 58 104 41 25 68 25 100 0z m2901 -92 c47 -56 56 -65 111 -113 62 -54 71
-72 49 -96 -22 -24 -46 -24 -69 1 -10 11 -23 20 -28 20 -6 0 1 -13 16 -28 15
-15 27 -32 27 -37 0 -15 -33 -45 -49 -45 -20 0 -241 220 -241 239 0 9 19 35
42 58 58 59 92 59 142 1z m-2626 -164 c26 -19 50 -41 54 -48 12 -21 -20 -56
-50 -56 -22 0 -40 -17 -102 -100 -79 -105 -101 -118 -134 -81 -21 23 -23 19
60 126 77 100 87 118 72 133 -14 14 15 62 38 62 8 0 36 -16 62 -36z m2362
-146 c92 -139 102 -179 53 -217 -71 -57 -103 -40 -203 108 -44 66 -80 125 -80
130 0 12 40 41 56 41 6 0 24 -19 39 -42 59 -91 117 -169 122 -164 3 3 -25 50
-61 106 -36 55 -66 107 -66 115 0 13 36 45 52 45 4 0 44 -55 88 -122z m-513 6
c-3 -3 -12 -4 -19 -1 -8 3 -5 6 6 6 11 1 17 -2 13 -5z m111 -123 c29 -30 103
-211 102 -248 0 -36 -40 -74 -85 -80 -34 -4 -44 -1 -67 22 -26 26 -108 216
-108 250 0 29 21 56 53 70 49 22 76 18 105 -14z m-1409 -39 c8 -14 -3 -56 -43
-172 -29 -85 -58 -156 -65 -158 -22 -7 -61 8 -61 25 0 9 23 85 52 170 50 148
53 153 80 153 16 0 31 -7 37 -18z m1046 -168 c1 -71 5 -150 9 -176 8 -45 7
-48 -17 -59 -35 -16 -53 -1 -61 53 -4 22 -30 92 -57 155 -28 63 -47 118 -43
123 23 20 53 20 72 0 l20 -21 6 25 c6 23 33 37 61 31 6 -1 10 -53 10 -131z
m-771 110 c9 -3 16 -18 16 -32 l0 -26 16 22 c8 12 25 22 37 22 46 0 47 -7 26
-150 -29 -202 -30 -204 -62 -208 -34 -4 -57 13 -58 42 0 21 0 21 -9 -1 -7 -17
-18 -23 -38 -23 -27 0 -58 21 -48 31 2 2 9 38 15 79 27 185 32 216 37 233 5
17 38 23 68 11z"/>
<path d="M2260 4702 c0 -10 41 -35 47 -28 11 11 -7 36 -27 36 -11 0 -20 -3
-20 -8z"/>
<path d="M2100 4674 c-25 -7 -37 -13 -28 -13 26 -1 36 -29 63 -167 19 -95 22
-130 14 -145 -10 -20 -8 -20 38 -13 62 9 69 13 45 30 -11 7 -22 26 -25 41 -3
15 -15 70 -27 122 -23 109 -25 147 -7 154 25 11 -29 4 -73 -9z"/>
<path d="M2984 4637 c-2 -71 -50 -257 -72 -273 -14 -11 -15 -13 -2 -17 99 -30
153 -36 108 -11 -39 20 -38 29 14 244 6 25 17 55 24 66 12 20 10 22 -25 33
-21 6 -40 11 -42 11 -2 0 -4 -24 -5 -53z"/>
<path d="M1956 4633 c-11 -27 7 -31 31 -6 l22 23 -23 0 c-13 0 -27 -8 -30 -17z"/>
<path d="M3570 4482 c0 -9 -25 -62 -55 -117 -30 -54 -55 -102 -55 -106 0 -4
-14 -21 -30 -38 l-31 -30 23 -12 c13 -6 43 -23 68 -38 l45 -25 -27 32 c-30 36
-28 56 11 116 31 47 32 49 61 106 13 25 31 55 42 66 19 21 19 22 -16 42 -33
19 -36 20 -36 4z"/>
<path d="M1525 4461 c-15 -6 -10 -9 26 -13 26 -3 60 -16 78 -29 40 -30 86
-122 85 -171 -3 -82 -90 -143 -163 -112 -49 20 -69 41 -98 98 -20 40 -24 60
-21 104 3 29 9 57 14 60 5 4 16 16 24 26 15 19 14 19 -11 3 -53 -35 -74 -77
-74 -148 0 -57 4 -71 29 -103 38 -50 85 -69 158 -64 180 13 255 232 113 327
-39 26 -123 38 -160 22z"/>
<path d="M3730 4405 c0 -4 7 -13 15 -21 8 -9 15 -27 15 -42 1 -26 1 -26 15 -8
22 28 19 40 -15 59 -16 10 -30 15 -30 12z"/>
<path d="M3175 4330 c-11 -12 -31 -20 -49 -20 -24 0 -27 -3 -16 -10 30 -19 66
-11 79 16 15 34 9 40 -14 14z"/>
<path d="M3604 4280 c7 -8 18 -23 23 -34 9 -17 11 -16 25 12 l16 30 -39 4
c-33 3 -36 2 -25 -12z"/>
<path d="M4070 4139 c0 -31 -185 -219 -218 -222 -12 -1 -22 -4 -22 -7 0 -4 45
-50 99 -104 l100 -98 24 19 25 18 -38 3 c-66 5 -145 96 -121 140 17 31 188
192 205 192 24 0 20 13 -19 50 -35 34 -35 34 -35 9z"/>
<path d="M3615 4101 l-40 -6 31 -17 c25 -14 34 -15 41 -5 18 22 24 37 16 36
-4 -1 -26 -5 -48 -8z"/>
<path d="M906 3978 c-25 -31 -26 -33 -7 -40 27 -10 221 -198 221 -214 0 -24
16 -16 54 26 42 47 44 53 13 41 -14 -6 -31 -5 -43 1 -35 19 -194 182 -194 200
0 27 -14 22 -44 -14z"/>
<path d="M1280 3913 c0 -21 -6 -45 -12 -53 -7 -8 -1 -4 15 9 30 27 35 52 12
71 -13 11 -15 7 -15 -27z"/>
<path d="M666 3629 c-14 -11 -33 -35 -42 -52 l-15 -32 20 25 c15 19 29 25 61
25 57 0 95 -41 87 -93 -7 -40 -23 -62 -46 -62 -33 1 -115 54 -121 80 -5 23 -8
21 -33 -24 -32 -57 -32 -60 -11 -52 20 8 240 -105 271 -139 l22 -24 25 46 c25
43 36 75 16 43 -8 -12 -14 -13 -47 -1 -55 20 -83 41 -83 61 0 10 9 40 21 67
25 58 19 104 -18 133 -33 26 -73 26 -107 -1z"/>
<path d="M4320 3618 c-165 -84 -107 -332 84 -361 127 -20 225 131 167 259 -23
50 -53 81 -106 105 -53 25 -91 24 -145 -3z m196 -53 c14 -9 32 -31 40 -49 33
-68 -29 -168 -124 -200 -58 -20 -76 -20 -118 0 -66 31 -86 128 -40 188 22 30
87 69 131 80 32 7 85 -2 111 -19z"/>
<path d="M2440 4160 c-270 -23 -574 -128 -790 -272 -424 -284 -680 -688 -761
-1201 -18 -115 -7 -444 20 -567 58 -271 178 -533 330 -720 130 -159 246 -265
397 -365 340 -225 678 -315 1076 -286 162 12 189 17 358 67 154 46 223 76 359
152 202 115 435 324 557 502 60 87 131 216 171 310 70 166 99 277 129 491 16
120 16 137 0 305 -10 99 -22 197 -27 219 -61 234 -89 313 -167 465 -115 222
-347 478 -564 622 -99 66 -280 155 -388 191 -67 22 -103 32 -255 67 -40 10
-304 31 -341 28 -10 0 -57 -4 -104 -8z m314 -70 c33 -5 63 -13 68 -18 4 -4 17
-84 28 -178 29 -250 40 -324 75 -534 26 -154 95 -493 102 -499 6 -6 1 59 -16
219 -23 205 -94 641 -141 867 -15 72 -21 116 -15 122 16 16 262 -46 315 -79
16 -10 16 -9 2 -350 -12 -274 -6 -826 8 -798 15 27 35 475 35 787 0 251 3 325
13 329 15 5 146 -56 213 -100 57 -37 57 -37 29 -169 -47 -216 -111 -581 -145
-829 -13 -98 6 -29 91 325 12 52 54 262 74 370 33 176 44 218 57 222 14 5 158
-111 186 -149 l20 -27 -58 -148 c-60 -153 -123 -329 -169 -468 -15 -44 -34
-102 -42 -128 -19 -55 -13 -74 7 -25 7 18 28 66 46 106 18 39 33 74 33 77 0 2
13 33 29 67 37 82 98 236 173 441 20 52 52 29 140 -101 43 -64 45 -54 -49
-210 -35 -57 -63 -106 -63 -109 0 -3 -14 -28 -31 -56 -17 -28 -51 -89 -76
-136 -25 -47 -56 -105 -69 -129 -37 -66 -29 -63 21 9 24 35 48 69 52 74 31 40
103 151 173 270 76 128 103 165 120 165 12 0 90 -158 90 -183 0 -18 -26 -56
-83 -124 -92 -109 -269 -333 -263 -333 4 0 158 157 293 299 47 50 84 81 91 77
10 -6 62 -153 62 -176 0 -5 -30 -34 -67 -66 -152 -127 -299 -261 -256 -233 65
42 167 114 238 168 44 34 85 59 90 58 12 -4 35 -134 29 -163 -3 -12 -24 -32
-47 -44 -23 -13 -53 -31 -67 -40 -14 -10 -49 -32 -78 -50 -56 -35 -63 -55 -9
-28 93 48 181 88 193 88 18 0 26 -34 22 -105 l-3 -58 -42 -16 c-57 -20 -59
-45 -3 -36 l40 7 0 -66 c0 -54 -4 -70 -21 -87 -18 -18 -20 -25 -10 -40 17 -28
14 -44 -14 -77 -28 -34 -107 -51 -133 -30 -9 8 -55 13 -128 14 -62 1 -118 5
-123 9 -6 3 -11 37 -11 75 0 38 -4 79 -9 92 -5 13 -12 35 -15 51 -8 36 -25 35
-32 -3 -4 -16 -13 -35 -22 -42 -13 -11 -19 -7 -41 21 -94 124 -171 184 -298
233 -69 27 -89 30 -183 30 -151 0 -263 -38 -373 -124 -20 -17 -44 -27 -52 -24
-8 3 -31 31 -51 63 -20 32 -38 60 -40 62 -2 2 -29 9 -61 15 l-58 12 -3 47 -3
47 -55 0 c-53 0 -59 -4 -55 -38 5 -33 -21 -44 -82 -37 -84 9 -101 18 -131 69
-23 39 -34 48 -72 57 -25 7 -47 17 -49 23 -2 6 -6 23 -9 39 -6 24 -11 27 -46
27 -37 0 -41 -3 -47 -31 l-6 -31 -86 8 c-121 9 -127 13 -147 81 -9 32 -17 64
-17 71 0 29 -16 8 -22 -30 -9 -51 -27 -89 -69 -143 -41 -54 -53 -65 -65 -65
-12 0 -14 12 -11 80 1 49 -15 169 -29 210 -26 76 -61 211 -66 253 -4 27 -9 47
-11 44 -3 -3 -12 -36 -20 -74 -7 -37 -23 -89 -34 -115 -11 -26 -20 -57 -20
-70 0 -13 -8 -35 -17 -48 -10 -14 -20 -49 -23 -79 -3 -30 -10 -56 -15 -58 -10
-3 -45 66 -45 90 0 6 -9 39 -20 71 -11 33 -20 72 -20 87 0 15 -4 31 -10 34 -6
4 -10 -6 -10 -23 0 -16 -16 -74 -36 -128 -43 -118 -53 -164 -53 -265 -1 -82 9
-106 49 -111 20 -2 26 -9 28 -36 4 -42 -15 -49 -62 -23 -20 12 -43 21 -50 21
-7 0 -19 7 -27 16 -13 15 -35 15 -86 -1 -17 -6 -24 -3 -29 11 -3 11 -10 29
-16 41 -6 13 -8 48 -4 90 7 66 59 298 76 338 4 11 18 47 31 80 28 75 111 234
157 300 239 345 516 550 922 681 87 28 246 56 301 52 21 -1 42 1 45 5 11 10
210 8 278 -3z m-556 -1472 c7 -7 12 -22 12 -35 0 -20 -4 -23 -27 -17 -39 9
-47 19 -34 43 13 24 31 27 49 9z m-515 -75 c25 -27 57 -61 71 -76 14 -15 31
-25 37 -21 13 8 99 -15 99 -27 0 -12 -57 -11 -65 1 -10 17 -35 11 -35 -8 0
-14 -14 -21 -60 -31 -46 -10 -60 -18 -60 -31 0 -21 -73 -90 -95 -90 -8 0 -15
-8 -15 -17 0 -28 -17 -50 -29 -38 -15 15 -17 138 -2 143 7 2 -8 29 -37 65 -26
34 -58 77 -71 94 l-22 33 28 11 c31 13 143 36 185 38 19 1 38 -11 71 -46z
m-329 -16 c9 -14 4 -24 -24 -51 -28 -28 -41 -34 -62 -29 -24 5 -28 10 -28 39
0 31 3 34 29 34 16 0 34 7 41 15 15 18 29 16 44 -8z m1959 -33 c132 -34 236
-108 322 -229 35 -49 45 -73 54 -133 6 -40 9 -77 6 -81 -9 -16 -84 -22 -106
-9 -18 11 -23 10 -36 -9 -10 -15 -26 -23 -46 -23 -16 0 -35 -6 -41 -14 -6 -7
-42 -25 -81 -41 -38 -15 -78 -31 -87 -36 -10 -5 -25 -9 -33 -9 -21 0 -139 63
-205 110 -31 22 -67 40 -82 40 -16 0 -37 9 -48 20 -11 11 -26 20 -33 20 -23 0
-75 29 -81 45 -12 32 -26 13 -26 -36 0 -31 4 -48 10 -44 35 22 555 -212 778
-349 131 -81 322 -223 322 -238 0 -32 -192 -239 -204 -220 -3 5 2 31 10 56 9
26 14 49 11 52 -6 6 -58 -77 -93 -150 -40 -82 -144 -163 -144 -111 0 16 53
128 114 240 l38 70 -42 -44 c-56 -61 -126 -167 -181 -276 -39 -79 -51 -93 -89
-112 -80 -41 -78 -4 7 150 44 77 115 187 164 250 30 40 7 33 -36 -10 -91 -93
-219 -277 -281 -405 -29 -59 -66 -88 -114 -88 -19 0 -21 4 -15 28 22 87 175
323 309 475 87 99 75 96 -41 -9 -117 -106 -244 -271 -327 -426 -51 -95 -58
-102 -99 -112 -44 -10 -45 17 -3 99 76 148 250 380 364 487 69 65 75 78 16 38
-27 -19 -108 -93 -179 -165 -132 -131 -207 -230 -303 -397 -40 -70 -52 -84
-76 -86 -49 -6 -50 10 -9 88 45 85 43 83 110 182 88 128 208 263 331 371 24
21 41 41 39 44 -10 10 -143 -93 -241 -187 -125 -120 -192 -202 -301 -368 -71
-109 -90 -132 -110 -132 -36 0 -38 14 -9 72 96 190 383 522 553 641 42 29 15
30 -31 1 -134 -84 -334 -266 -453 -414 -29 -36 -85 -113 -123 -172 -39 -58
-76 -109 -82 -113 -7 -4 -19 -1 -27 8 -17 17 -7 42 60 142 134 200 303 384
484 528 56 44 101 83 99 85 -3 2 -49 -25 -103 -59 -153 -97 -308 -232 -435
-379 -73 -85 -201 -256 -211 -282 -8 -22 -47 -24 -47 -3 0 45 173 278 319 429
91 94 189 181 296 259 130 95 137 102 70 67 -73 -39 -269 -168 -310 -205 -16
-14 -69 -60 -117 -101 -49 -42 -88 -79 -88 -82 0 -4 -22 -30 -48 -57 -74 -79
-135 -154 -181 -222 -39 -57 -71 -81 -71 -52 0 30 155 233 261 344 37 39 76
79 86 90 62 69 362 308 409 325 12 5 26 14 30 21 11 19 -156 -74 -265 -147
-221 -146 -397 -310 -564 -526 -33 -43 -64 -78 -70 -78 -15 0 -171 81 -187 97
-11 12 -12 17 -2 20 26 10 10 21 -23 16 -37 -6 -85 17 -85 41 0 14 62 36 101
36 13 0 31 5 39 11 11 7 -9 8 -70 3 -142 -13 -155 -12 -155 11 0 27 49 43 209
66 72 11 132 22 135 25 9 8 -220 -5 -287 -17 -107 -19 -139 -22 -146 -11 -19
32 147 77 352 96 79 8 146 16 149 20 4 3 -52 6 -123 6 -120 0 -223 -11 -386
-42 -72 -13 -92 -7 -66 18 39 39 375 101 563 105 l60 1 -40 10 c-58 14 -354 3
-445 -17 -165 -37 -205 -43 -215 -33 -21 20 66 57 189 79 28 5 83 16 121 24
43 10 152 18 280 22 224 7 225 12 3 33 -107 10 -149 10 -275 -4 -148 -16 -169
-20 -296 -52 -49 -12 -71 -14 -79 -6 -13 13 27 31 122 54 239 58 472 83 650
68 141 -12 150 -12 150 -2 0 11 -100 31 -218 42 -97 9 -440 -2 -461 -14 -5 -3
-35 -10 -68 -15 -32 -5 -92 -18 -133 -30 -121 -33 -122 -33 -179 72 -50 91
-52 90 169 85 105 -2 190 -1 190 3 0 12 -56 49 -74 49 -9 0 -28 18 -42 40 -15
22 -34 40 -44 40 -22 0 -49 30 -59 66 -6 22 -14 29 -32 30 -13 0 -34 6 -47 13
-12 6 -27 9 -32 6 -16 -10 -50 5 -50 21 0 8 -10 14 -25 14 -15 0 -31 9 -41 24
-8 14 -27 26 -42 28 -21 2 -30 11 -40 41 -13 41 -32 243 -24 265 3 10 32 11
126 6 66 -4 141 -10 166 -13 l45 -6 3 -118 c2 -88 6 -117 16 -117 9 0 13 25
15 97 1 54 5 101 9 105 10 10 109 -15 125 -31 11 -11 11 -196 0 -214 -8 -13
17 -27 47 -27 24 0 26 3 22 35 -3 26 0 35 11 35 12 0 15 -23 16 -142 1 -137 8
-168 35 -168 8 0 11 41 11 132 l0 133 35 -1 c45 -2 107 -19 125 -34 13 -11 14
-33 9 -134 -4 -67 -11 -126 -16 -133 -7 -9 1 -16 27 -28 21 -8 46 -15 56 -15
21 0 25 15 8 25 -15 10 -4 316 13 326 7 4 17 5 22 1 6 -3 -4 12 -22 34 -109
134 -152 190 -152 199 0 20 24 35 54 35 17 0 75 7 130 17 l100 16 98 -104 c53
-57 98 -109 98 -115 0 -7 -8 -15 -17 -18 -12 -5 -14 -9 -5 -18 14 -14 15 -136
3 -240 -4 -38 -5 -68 -3 -68 3 0 10 7 17 16 11 16 23 15 151 -10 77 -14 148
-26 158 -26 17 0 17 2 5 18 -12 14 -13 49 -9 187 l5 170 35 12 c19 7 27 12 16
12 -14 1 -17 6 -12 25 9 35 109 209 123 213 16 6 127 -162 120 -181 -3 -8 1
-20 9 -26 8 -7 14 -19 14 -27 0 -10 6 -12 23 -7 12 3 23 8 25 9 2 2 -11 24
-27 51 -17 26 -31 56 -31 66 0 18 79 82 140 114 102 52 274 69 393 38z m-1018
-284 c28 -5 73 -13 100 -18 95 -15 100 -45 5 -31 -30 4 -77 11 -105 14 -57 8
-115 31 -115 47 0 6 12 8 33 4 17 -4 55 -11 82 -16z m-5 -74 c14 -1 44 -6 68
-10 l43 -9 -3 -71 -3 -71 -50 3 c-27 2 -55 8 -61 13 -6 5 -18 7 -27 3 -8 -3
-25 0 -38 6 -19 11 -21 18 -16 70 6 71 13 84 41 75 11 -3 32 -7 46 -9z m1724
-131 c60 -3 117 -10 127 -16 22 -11 24 -30 7 -47 -7 -7 -13 -20 -13 -30 0 -14
-8 -17 -40 -15 l-40 2 28 -15 c30 -16 36 -44 9 -44 -9 0 -42 9 -71 20 -30 11
-56 18 -58 17 -1 -2 24 -16 57 -32 41 -20 60 -34 60 -47 0 -10 -2 -18 -6 -18
-7 0 -92 37 -124 54 -14 8 -41 17 -60 20 l-35 7 42 -23 c108 -60 143 -82 143
-90 0 -15 -26 -8 -91 23 -82 40 -160 71 -166 66 -4 -4 31 -26 87 -55 14 -7 36
-22 50 -32 38 -29 2 -26 -68 6 -141 64 -173 69 -96 15 70 -49 54 -49 -61 -2
-113 47 -108 37 22 -44 224 -139 257 -170 217 -210 -15 -14 -20 -13 -62 18
-223 160 -321 222 -510 322 -29 16 -51 33 -49 39 13 40 433 130 557 120 19 -2
84 -6 144 -9z"/>
<path d="M2480 3984 c0 -18 134 -474 150 -509 5 -11 34 -90 64 -175 83 -239
215 -564 192 -475 -67 254 -219 709 -332 993 -66 166 -74 184 -74 166z"/>
<path d="M2178 3765 c99 -204 191 -382 270 -520 139 -246 301 -510 302 -491 0
16 -268 533 -348 671 -98 170 -231 386 -249 405 -8 8 3 -21 25 -65z"/>
<path d="M1870 3589 c110 -157 399 -527 510 -653 91 -103 140 -157 182 -201
26 -27 48 -53 48 -57 0 -5 4 -8 10 -8 5 0 -18 37 -53 83 -34 46 -89 119 -121
163 -64 85 -285 366 -295 374 -4 3 -26 30 -51 60 -69 85 -231 265 -243 269 -6
2 0 -11 13 -30z"/>
<path d="M1686 3271 c108 -105 341 -316 415 -376 20 -16 74 -62 120 -100 122
-103 157 -128 169 -120 15 9 -242 250 -420 395 -30 25 -61 51 -68 57 -47 45
-313 253 -322 253 -3 -1 45 -49 106 -109z"/>
<path d="M1577 2964 c-12 -12 6 -34 48 -59 52 -30 55 -30 55 -6 0 12 -16 29
-44 45 -49 28 -50 29 -59 20z"/>
<path d="M1790 2842 c0 -48 36 -75 113 -86 46 -6 42 2 -27 48 -64 42 -86 52
-86 38z"/>
<path d="M3906 2352 c-25 -66 -45 -151 -46 -194 0 -27 6 -41 22 -52 30 -21 61
-20 81 2 20 22 15 137 -8 202 -8 23 -15 51 -15 61 0 36 -17 27 -34 -19z"/>
<path d="M4015 2300 c-3 -5 1 -10 9 -10 9 0 16 5 16 10 0 6 -4 10 -9 10 -6 0
-13 -4 -16 -10z"/>
<path d="M4071 2237 c-7 -23 -15 -67 -18 -98 -5 -52 -4 -56 17 -62 40 -10 60
9 60 57 0 41 -25 132 -39 140 -4 3 -13 -14 -20 -37z"/>
<path d="M2578 2223 c7 -3 16 -2 19 1 4 3 -2 6 -13 5 -11 0 -14 -3 -6 -6z"/>
<path d="M2622 2076 c-29 -8 -54 -15 -56 -17 -2 -2 -6 -52 -8 -111 l-3 -107
25 6 c92 20 161 46 151 56 -6 6 -11 49 -11 99 0 101 3 98 -98 74z"/>
<path d="M2007 2023 c-11 -10 -8 -83 3 -83 6 0 10 20 10 45 0 46 -2 50 -13 38z"/>
<path d="M2063 1995 c0 -22 2 -30 4 -17 2 12 2 30 0 40 -3 9 -5 -1 -4 -23z"/>
<path d="M2108 2005 c-3 -14 -1 -28 3 -31 5 -3 9 9 9 25 0 38 -6 40 -12 6z"/>
<path d="M1896 2003 c-9 -10 -7 -83 3 -83 11 0 21 25 21 55 0 25 -12 39 -24
28z"/>
<path d="M1950 1980 c0 -16 0 -33 -1 -37 0 -4 4 -9 10 -11 7 -2 11 12 11 37 0
23 -4 41 -10 41 -5 0 -10 -13 -10 -30z"/>
<path d="M1948 1783 c7 -3 16 -2 19 1 4 3 -2 6 -13 5 -11 0 -14 -3 -6 -6z"/>
<path d="M3105 1560 c-3 -6 1 -7 9 -4 18 7 21 14 7 14 -6 0 -13 -4 -16 -10z"/>
<path d="M3200 1520 c-8 -5 -12 -12 -9 -15 4 -3 12 1 19 10 14 17 11 19 -10 5z"/>
<path d="M4235 1340 c-3 -5 1 -10 10 -10 9 0 13 5 10 10 -3 6 -8 10 -10 10 -2
0 -7 -4 -10 -10z"/>
<path d="M4373 1243 c9 -9 20 -13 24 -9 4 4 1 11 -7 16 -25 16 -35 11 -17 -7z"/>
<path d="M975 1000 c-10 -11 -13 -20 -8 -20 13 0 38 29 31 35 -3 3 -13 -4 -23
-15z"/>
<path d="M3990 1042 c0 -12 19 -26 26 -19 2 2 -2 10 -11 17 -9 8 -15 8 -15 2z"/>
<path d="M4090 935 c7 -8 17 -15 22 -15 6 0 5 7 -2 15 -7 8 -17 15 -22 15 -6
0 -5 -7 2 -15z"/>
<path d="M3330 605 c0 -2 14 -39 31 -82 29 -73 49 -109 49 -88 0 18 -65 175
-72 175 -5 0 -8 -2 -8 -5z"/>
</g>
</svg>
